{
  "accessors": [
    {
      "bufferView": 1,
      "componentType": 5126,
      "count": 5912,
      "max": [
        12.896530151367188,
        11.925259590148926,
        13.367179870605469
      ],
      "min": [
        -8.446700096130371,
        -18.898700714111328,
        -7.618500232696533
      ],
      "type": "VEC3"
    },
    {
      "bufferView": 1,
      "byteOffset": 70944,
      "componentType": 5126,
      "count": 5912,
      "max": [
        1.0,
        1.0,
        1.0
      ],
      "min": [
        -1.0,
        -1.0,
        -1.0
      ],
      "type": "VEC3"
    },
    {
      "bufferView": 0,
      "componentType": 5125,
      "count": 35304,
      "type": "SCALAR"
    },
    {
      "bufferView": 1,
      "byteOffset": 141888,
      "componentType": 5126,
      "count": 1248,
      "max": [
        11.861100196838379,
        15.971929550170898,
        12.328760147094727
      ],
      "min": [
        -7.099490165710449,
        -19.797500610351563,
        -9.800230026245117
      ],
      "type": "VEC3"
    },
    {
      "bufferView": 1,
      "byteOffset": 156864,
      "componentType": 5126,
      "count": 1248,
      "max": [
        1.0,
        0.9999677538871765,
        0.9999575018882751
      ],
      "min": [
        -1.0,
        -0.9999677538871765,
        -0.9999808669090271
      ],
      "type": "VEC3"
    },
    {
      "bufferView": 0,
      "byteOffset": 141216,
      "componentType": 5125,
      "count": 7332,
      "type": "SCALAR"
    },
    {
      "bufferView": 1,
      "byteOffset": 171840,
      "componentType": 5126,
      "count": 5784,
      "max": [
        7.492300033569336,
        17.31627082824707,
        8.338839530944824
      ],
      "min": [
        -6.934909820556641,
        -20.58279037475586,
        -10.726320266723633
      ],
      "type": "VEC3"
    },
    {
      "bufferView": 1,
      "byteOffset": 241248,
      "componentType": 5126,
      "count": 5784,
      "max": [
        1.0,
        1.0,
        1.0
      ],
      "min": [
        -1.0,
        -1.0,
        -1.0
      ],
      "type": "VEC3"
    },
    {
      "bufferView": 0,
      "byteOffset": 170544,
      "componentType": 5125,
      "count": 34560,
      "type": "SCALAR"
    }
  ],
  "asset": {
    "extras": {
      "author": "Brutebandit (https://sketchfab.com/brutebandit)",
      "license": "CC-BY-4.0 (http://creativecommons.org/licenses/by/4.0/)",
      "source": "https://sketchfab.com/3d-models/glucose-molecule-2b4c96af7c0c41debf1bd654c1103a00",
      "title": "Glucose Molecule"
    },
    "generator": "Sketchfab-12.66.0",
    "version": "2.0"
  },
  "bufferViews": [
    {
      "buffer": 0,
      "byteLength": 308784,
      "name": "floatBufferViews",
      "target": 34963
    },
    {
      "buffer": 0,
      "byteLength": 310656,
      "byteOffset": 308784,
      "byteStride": 12,
      "name": "floatBufferViews",
      "target": 34962
    }
  ],
  "buffers": [
    {
      "byteLength": 619440,
      "uri": "scene.bin"
    }
  ],
  "materials": [
    {
      "doubleSided": true,
      "name": "Material",
      "pbrMetallicRoughness": {
        "baseColorFactor": [
          0.8000000715,
          0.0253582858,
          0.0088645713,
          1.0
        ],
        "metallicFactor": 0.0,
        "roughnessFactor": 0.6
      }
    },
    {
      "doubleSided": true,
      "name": "Material.001",
      "pbrMetallicRoughness": {
        "baseColorFactor": [
          0.8000000119,
          0.8000000119,
          0.8000000119,
          1.0
        ],
        "metallicFactor": 0.0,
        "roughnessFactor": 0.6
      }
    },
    {
      "doubleSided": true,
      "name": "Material.002",
      "pbrMetallicRoughness": {
        "baseColorFactor": [
          0.0,
          0.1797714084,
          0.8000000715,
          1.0
        ],
        "metallicFactor": 0.0,
        "roughnessFactor": 0.6
      }
    }
  ],
  "meshes": [
    {
      "name": "Sphere.014_0",
      "primitives": [
        {
          "attributes": {
            "NORMAL": 1,
            "POSITION": 0
          },
          "indices": 2,
          "material": 0,
          "mode": 4
        }
      ]
    },
    {
      "name": "Sphere.014_1",
      "primitives": [
        {
          "attributes": {
            "NORMAL": 4,
            "POSITION": 3
          },
          "indices": 5,
          "material": 1,
          "mode": 4
        }
      ]
    },
    {
      "name": "Sphere.014_2",
      "primitives": [
        {
          "attributes": {
            "NORMAL": 7,
            "POSITION": 6
          },
          "indices": 8,
          "material": 2,
          "mode": 4
        }
      ]
    }
  ],
  "nodes": [
    {
      "children": [
        1
      ],
      "matrix": [
        1.0,
        0.0,
        0.0,
        0.0,
        0.0,
        2.220446049250313e-16,
        -1.0,
        0.0,
        0.0,
        1.0,
        2.220446049250313e-16,
        0.0,
        0.0,
        0.0,
        0.0,
        1.0
      ],
      "name": "Sketchfab_model"
    },
    {
      "children": [
        2,
        4
      ],
      "name": "Root"
    },
    {
      "children": [
        3
      ],
      "matrix": [
        -0.29086000000000006,
        0.9551700000000001,
        -0.05519000000000001,
        0.0,
        -0.7711,
        -0.19988000000000003,
        0.6045200000000001,
        0.0,
        0.5663900000000001,
        0.21839000000000003,
        0.7946700000000001,
        0.0,
        4.076250000000001,
        1.00545,
        5.903860000000001,
        1.0
      ],
      "name": "Lamp"
    },
    {
      "name": "Lamp"
    },
    {
      "children": [
        5,
        6,
        7
      ],
      "matrix": [
        0.3451200000000001,
        0.0,
        0.0,
        0.0,
        0.0,
        0.3451200000000001,
        0.0,
        0.0,
        0.0,
        0.0,
        0.3451200000000001,
        0.0,
        0.2341,
        -0.9523400000000001,
        0.24031000000000002,
        1.0
      ],
      "name": "Sphere.014"
    },
    {
      "mesh": 0,
      "name": "Sphere.014_0"
    },
    {
      "mesh": 1,
      "name": "Sphere.014_1"
    },
    {
      "mesh": 2,
      "name": "Sphere.014_2"
    }
  ],
  "scene": 0,
  "scenes": [
    {
      "name": "Sketchfab_Scene",
      "nodes": [
        0
      ]
    }
  ]
}
